<mxfile host="Electron" modified="2023-06-11T07:51:55.594Z" agent="Mozilla/5.0 (Windows NT 10.0; Win64; x64) AppleWebKit/537.36 (KHTML, like Gecko) draw.io/21.2.8 Chrome/112.0.5615.165 Electron/24.2.0 Safari/537.36" etag="4V6gyA1DJy_p32kHrKTX" version="21.2.8" type="device">
  <diagram name="Page-1" id="VxqEKcWssq_XyiCzB9bS">
    <mxGraphModel dx="978" dy="571" grid="0" gridSize="10" guides="1" tooltips="1" connect="1" arrows="1" fold="1" page="1" pageScale="1" pageWidth="1654" pageHeight="1169" background="none" math="0" shadow="1">
      <root>
        <mxCell id="0" />
        <mxCell id="1" parent="0" />
        <mxCell id="7Op2JaMXb7pChXdJnSNb-1" value="UI" style="shape=umlLifeline;perimeter=lifelinePerimeter;whiteSpace=wrap;html=1;container=1;collapsible=0;recursiveResize=0;outlineConnect=0;rounded=1;shadow=0;comic=0;labelBackgroundColor=none;strokeWidth=1;fontFamily=Verdana;fontSize=12;align=center;fillColor=#dae8fc;strokeColor=#6c8ebf;" parent="1" vertex="1">
          <mxGeometry x="388" y="26" width="100" height="534" as="geometry" />
        </mxCell>
        <mxCell id="7Op2JaMXb7pChXdJnSNb-2" value="" style="html=1;points=[];perimeter=orthogonalPerimeter;rounded=0;shadow=0;comic=0;labelBackgroundColor=none;strokeWidth=1;fontFamily=Verdana;fontSize=12;align=center;fillColor=#dae8fc;strokeColor=#6c8ebf;" parent="7Op2JaMXb7pChXdJnSNb-1" vertex="1">
          <mxGeometry x="45" y="60" width="10" height="390" as="geometry" />
        </mxCell>
        <mxCell id="7Op2JaMXb7pChXdJnSNb-3" value="&lt;font face=&quot;Verdana&quot;&gt;&amp;nbsp;7. Seatmap&amp;nbsp;&lt;/font&gt;" style="html=1;align=left;spacingLeft=2;endArrow=block;rounded=0;edgeStyle=orthogonalEdgeStyle;curved=0;rounded=0;verticalAlign=middle;" parent="7Op2JaMXb7pChXdJnSNb-1" edge="1">
          <mxGeometry x="-1" y="-22" relative="1" as="geometry">
            <mxPoint x="64" y="142" as="sourcePoint" />
            <Array as="points">
              <mxPoint x="94" y="142" />
              <mxPoint x="94" y="179" />
            </Array>
            <mxPoint x="72" y="179" as="targetPoint" />
            <mxPoint x="-10" y="-2" as="offset" />
          </mxGeometry>
        </mxCell>
        <mxCell id="7Op2JaMXb7pChXdJnSNb-42" value="&amp;nbsp;17. checkIn()&amp;nbsp;" style="html=1;verticalAlign=middle;endArrow=block;labelBackgroundColor=default;fontFamily=Verdana;fontSize=11;edgeStyle=elbowEdgeStyle;elbow=vertical;entryX=0.03;entryY=0.451;entryDx=0;entryDy=0;entryPerimeter=0;exitX=1.011;exitY=0.451;exitDx=0;exitDy=0;exitPerimeter=0;" parent="7Op2JaMXb7pChXdJnSNb-1" edge="1">
          <mxGeometry relative="1" as="geometry">
            <mxPoint x="54.999999999999886" y="334.22" as="sourcePoint" />
            <mxPoint x="225.18999999999994" y="334.22" as="targetPoint" />
            <Array as="points" />
          </mxGeometry>
        </mxCell>
        <mxCell id="7Op2JaMXb7pChXdJnSNb-46" value="&lt;font face=&quot;Verdana&quot;&gt;&amp;nbsp;&lt;/font&gt;22. Success or Failed&amp;nbsp;" style="html=1;verticalAlign=middle;endArrow=open;dashed=1;endSize=8;edgeStyle=elbowEdgeStyle;elbow=vertical;curved=0;rounded=0;exitX=-0.039;exitY=0.728;exitDx=0;exitDy=0;exitPerimeter=0;entryX=1.011;entryY=0.725;entryDx=0;entryDy=0;entryPerimeter=0;labelBackgroundColor=default;fontSize=11;" parent="7Op2JaMXb7pChXdJnSNb-1" edge="1">
          <mxGeometry x="-0.0009" relative="1" as="geometry">
            <mxPoint x="224.4999999999999" y="374.6600000000001" as="sourcePoint" />
            <mxPoint x="54.999999999999886" y="374" as="targetPoint" />
            <mxPoint as="offset" />
          </mxGeometry>
        </mxCell>
        <mxCell id="vvcB78ZaGYWaYG9tcJMQ-2" value="&amp;nbsp;13. Seat updated or failed&amp;nbsp;" style="html=1;verticalAlign=middle;endArrow=open;dashed=1;endSize=8;edgeStyle=elbowEdgeStyle;elbow=vertical;curved=0;rounded=0;exitX=-0.039;exitY=0.728;exitDx=0;exitDy=0;exitPerimeter=0;entryX=1.011;entryY=0.725;entryDx=0;entryDy=0;entryPerimeter=0;labelBackgroundColor=default;fontSize=11;" parent="7Op2JaMXb7pChXdJnSNb-1" edge="1">
          <mxGeometry x="-0.0009" relative="1" as="geometry">
            <mxPoint x="224.4999999999999" y="236.66000000000008" as="sourcePoint" />
            <mxPoint x="54.999999999999886" y="236" as="targetPoint" />
            <mxPoint as="offset" />
          </mxGeometry>
        </mxCell>
        <mxCell id="7Op2JaMXb7pChXdJnSNb-40" value="&lt;font face=&quot;Verdana&quot; style=&quot;font-size: 11px;&quot;&gt;14. Regulation notices&lt;/font&gt;" style="html=1;align=left;spacingLeft=2;endArrow=block;rounded=0;edgeStyle=orthogonalEdgeStyle;curved=0;rounded=0;verticalAlign=middle;" parent="7Op2JaMXb7pChXdJnSNb-1" edge="1">
          <mxGeometry x="1" y="-19" relative="1" as="geometry">
            <mxPoint x="56" y="253" as="sourcePoint" />
            <Array as="points">
              <mxPoint x="86" y="253" />
              <mxPoint x="86" y="290" />
            </Array>
            <mxPoint x="64" y="290" as="targetPoint" />
            <mxPoint x="-8" y="2" as="offset" />
          </mxGeometry>
        </mxCell>
        <mxCell id="7Op2JaMXb7pChXdJnSNb-11" value="&amp;nbsp;1. Input PNR&amp;nbsp;" style="html=1;verticalAlign=middle;endArrow=block;entryX=0;entryY=0.452;labelBackgroundColor=default;fontFamily=Verdana;fontSize=11;edgeStyle=elbowEdgeStyle;elbow=vertical;entryDx=0;entryDy=0;entryPerimeter=0;exitX=0.944;exitY=0.453;exitDx=0;exitDy=0;exitPerimeter=0;" parent="7Op2JaMXb7pChXdJnSNb-1" edge="1">
          <mxGeometry x="-0.0027" relative="1" as="geometry">
            <mxPoint x="-124.55999999999995" y="75.21999999999997" as="sourcePoint" />
            <mxPoint x="45" y="75.00000000000006" as="targetPoint" />
            <Array as="points" />
            <mxPoint as="offset" />
          </mxGeometry>
        </mxCell>
        <mxCell id="7Op2JaMXb7pChXdJnSNb-45" value="&lt;font face=&quot;Verdana&quot; style=&quot;font-size: 11px;&quot;&gt;&amp;nbsp;23. List of boarding pass&amp;nbsp;&lt;/font&gt;" style="html=1;align=left;spacingLeft=2;endArrow=block;rounded=0;edgeStyle=orthogonalEdgeStyle;curved=0;rounded=0;verticalAlign=middle;" parent="7Op2JaMXb7pChXdJnSNb-1" edge="1">
          <mxGeometry x="0.0526" y="-120" relative="1" as="geometry">
            <mxPoint x="42.000000000000455" y="375" as="sourcePoint" />
            <Array as="points">
              <mxPoint x="12" y="375" />
              <mxPoint x="12" y="415" />
              <mxPoint x="34" y="415" />
            </Array>
            <mxPoint x="42" y="415" as="targetPoint" />
            <mxPoint as="offset" />
          </mxGeometry>
        </mxCell>
        <mxCell id="7Op2JaMXb7pChXdJnSNb-4" value="Controller" style="shape=umlLifeline;perimeter=lifelinePerimeter;whiteSpace=wrap;html=1;container=1;collapsible=0;recursiveResize=0;outlineConnect=0;rounded=1;shadow=0;comic=0;labelBackgroundColor=none;strokeWidth=1;fontFamily=Verdana;fontSize=12;align=center;fillColor=#dae8fc;strokeColor=#6c8ebf;" parent="1" vertex="1">
          <mxGeometry x="568" y="26" width="100" height="534" as="geometry" />
        </mxCell>
        <mxCell id="7Op2JaMXb7pChXdJnSNb-5" value="" style="html=1;points=[];perimeter=orthogonalPerimeter;rounded=0;shadow=0;comic=0;labelBackgroundColor=none;strokeWidth=1;fontFamily=Verdana;fontSize=12;align=center;fillColor=#dae8fc;strokeColor=#6c8ebf;" parent="7Op2JaMXb7pChXdJnSNb-4" vertex="1">
          <mxGeometry x="45" y="60" width="10" height="390" as="geometry" />
        </mxCell>
        <mxCell id="7Op2JaMXb7pChXdJnSNb-43" value="&amp;nbsp;18. update booking status&amp;nbsp;" style="html=1;verticalAlign=middle;endArrow=block;labelBackgroundColor=default;fontFamily=Verdana;fontSize=11;edgeStyle=elbowEdgeStyle;elbow=vertical;exitX=1.011;exitY=0.451;exitDx=0;exitDy=0;exitPerimeter=0;entryX=0;entryY=0.664;entryDx=0;entryDy=0;entryPerimeter=0;" parent="7Op2JaMXb7pChXdJnSNb-4" edge="1">
          <mxGeometry x="-0.0308" y="-1" relative="1" as="geometry">
            <mxPoint x="54.999999999999886" y="333.22" as="sourcePoint" />
            <mxPoint x="226" y="333.1600000000001" as="targetPoint" />
            <Array as="points" />
            <mxPoint as="offset" />
          </mxGeometry>
        </mxCell>
        <mxCell id="7Op2JaMXb7pChXdJnSNb-44" value="&lt;font face=&quot;Verdana&quot; style=&quot;font-size: 11px;&quot;&gt;20. Success or Failed&lt;/font&gt;" style="html=1;verticalAlign=middle;endArrow=open;dashed=1;endSize=8;edgeStyle=elbowEdgeStyle;elbow=vertical;curved=0;rounded=0;exitX=-0.041;exitY=0.723;exitDx=0;exitDy=0;exitPerimeter=0;labelBackgroundColor=default;fontSize=11;entryX=1.167;entryY=0.663;entryDx=0;entryDy=0;entryPerimeter=0;" parent="7Op2JaMXb7pChXdJnSNb-4" edge="1">
          <mxGeometry x="-0.0042" relative="1" as="geometry">
            <mxPoint x="224.58999999999992" y="373.05999999999995" as="sourcePoint" />
            <mxPoint x="56.67000000000007" y="372.72" as="targetPoint" />
            <Array as="points">
              <mxPoint x="222" y="373" />
            </Array>
            <mxPoint as="offset" />
          </mxGeometry>
        </mxCell>
        <mxCell id="vvcB78ZaGYWaYG9tcJMQ-1" value="&lt;font face=&quot;Verdana&quot; style=&quot;font-size: 10px;&quot;&gt;&amp;nbsp;12. Seat updated or failed&amp;nbsp;&lt;/font&gt;" style="html=1;verticalAlign=middle;endArrow=open;dashed=1;endSize=8;edgeStyle=elbowEdgeStyle;elbow=vertical;curved=0;rounded=0;exitX=-0.041;exitY=0.723;exitDx=0;exitDy=0;exitPerimeter=0;labelBackgroundColor=default;fontSize=11;entryX=0.7;entryY=0.348;entryDx=0;entryDy=0;entryPerimeter=0;" parent="7Op2JaMXb7pChXdJnSNb-4" edge="1">
          <mxGeometry x="-0.0085" relative="1" as="geometry">
            <mxPoint x="222.58999999999992" y="236.05999999999995" as="sourcePoint" />
            <mxPoint x="59" y="236.1199999999999" as="targetPoint" />
            <Array as="points">
              <mxPoint x="235" y="236" />
            </Array>
            <mxPoint as="offset" />
          </mxGeometry>
        </mxCell>
        <mxCell id="7Op2JaMXb7pChXdJnSNb-38" value="&amp;nbsp;9. selectSeat()&amp;nbsp;" style="html=1;verticalAlign=middle;endArrow=block;labelBackgroundColor=default;fontFamily=Verdana;fontSize=11;edgeStyle=elbowEdgeStyle;elbow=vertical;entryX=0.03;entryY=0.451;entryDx=0;entryDy=0;entryPerimeter=0;exitX=1.011;exitY=0.451;exitDx=0;exitDy=0;exitPerimeter=0;" parent="7Op2JaMXb7pChXdJnSNb-4" edge="1">
          <mxGeometry relative="1" as="geometry">
            <mxPoint x="-125.19000000000011" y="196.22000000000003" as="sourcePoint" />
            <mxPoint x="44.99999999999994" y="196.22000000000003" as="targetPoint" />
            <Array as="points" />
          </mxGeometry>
        </mxCell>
        <mxCell id="7Op2JaMXb7pChXdJnSNb-14" value="&lt;font face=&quot;Verdana&quot; style=&quot;font-size: 11px;&quot;&gt;&amp;nbsp;4. List of booking by PNR&amp;nbsp;&lt;/font&gt;" style="html=1;verticalAlign=middle;endArrow=open;dashed=1;endSize=8;edgeStyle=elbowEdgeStyle;elbow=vertical;curved=0;rounded=0;exitX=-0.041;exitY=0.723;exitDx=0;exitDy=0;exitPerimeter=0;labelBackgroundColor=default;fontSize=11;" parent="7Op2JaMXb7pChXdJnSNb-4" edge="1">
          <mxGeometry x="-0.0042" relative="1" as="geometry">
            <mxPoint x="225.23999999999992" y="115.55999999999995" as="sourcePoint" />
            <mxPoint x="55.65" y="115.5" as="targetPoint" />
            <Array as="points">
              <mxPoint x="261.65" y="115.5" />
            </Array>
            <mxPoint as="offset" />
          </mxGeometry>
        </mxCell>
        <mxCell id="7Op2JaMXb7pChXdJnSNb-13" value="&lt;font face=&quot;Verdana&quot; style=&quot;font-size: 11px;&quot;&gt;&amp;nbsp;5. View List of booking&amp;nbsp;&lt;/font&gt;" style="html=1;verticalAlign=middle;endArrow=open;dashed=1;endSize=8;edgeStyle=elbowEdgeStyle;elbow=vertical;curved=0;rounded=0;exitX=-0.039;exitY=0.728;exitDx=0;exitDy=0;exitPerimeter=0;entryX=1.011;entryY=0.725;entryDx=0;entryDy=0;entryPerimeter=0;labelBackgroundColor=default;fontSize=11;" parent="7Op2JaMXb7pChXdJnSNb-4" edge="1">
          <mxGeometry x="-0.0009" relative="1" as="geometry">
            <mxPoint x="44.25999999999988" y="115.66000000000008" as="sourcePoint" />
            <mxPoint x="-125.24000000000012" y="115" as="targetPoint" />
            <mxPoint as="offset" />
          </mxGeometry>
        </mxCell>
        <mxCell id="A0az1k7j8bjUsIYR8W-r-1" value="&lt;font face=&quot;Verdana&quot; style=&quot;font-size: 11px;&quot;&gt;21. Email confirmation&amp;nbsp;&lt;/font&gt;" style="html=1;align=left;spacingLeft=2;endArrow=block;rounded=0;edgeStyle=orthogonalEdgeStyle;curved=0;rounded=0;verticalAlign=middle;" edge="1" parent="7Op2JaMXb7pChXdJnSNb-4">
          <mxGeometry x="1" y="-17" relative="1" as="geometry">
            <mxPoint x="55" y="395" as="sourcePoint" />
            <Array as="points">
              <mxPoint x="85" y="395" />
              <mxPoint x="85" y="432" />
            </Array>
            <mxPoint x="63" y="432" as="targetPoint" />
            <mxPoint x="-1" as="offset" />
          </mxGeometry>
        </mxCell>
        <mxCell id="7Op2JaMXb7pChXdJnSNb-6" value="DB" style="shape=umlLifeline;perimeter=lifelinePerimeter;whiteSpace=wrap;html=1;container=1;collapsible=0;recursiveResize=0;outlineConnect=0;rounded=1;shadow=0;comic=0;labelBackgroundColor=none;strokeWidth=1;fontFamily=Verdana;fontSize=12;align=center;fillColor=#dae8fc;strokeColor=#6c8ebf;" parent="1" vertex="1">
          <mxGeometry x="749" y="26" width="100" height="534" as="geometry" />
        </mxCell>
        <mxCell id="7Op2JaMXb7pChXdJnSNb-7" value="" style="html=1;points=[];perimeter=orthogonalPerimeter;rounded=0;shadow=0;comic=0;labelBackgroundColor=none;strokeWidth=1;fontFamily=Verdana;fontSize=12;align=center;fillColor=#dae8fc;strokeColor=#6c8ebf;" parent="7Op2JaMXb7pChXdJnSNb-6" vertex="1">
          <mxGeometry x="45" y="60" width="10" height="390" as="geometry" />
        </mxCell>
        <mxCell id="7Op2JaMXb7pChXdJnSNb-39" value="&amp;nbsp;10. handleSeat()&amp;nbsp;" style="html=1;verticalAlign=middle;endArrow=block;labelBackgroundColor=default;fontFamily=Verdana;fontSize=11;edgeStyle=elbowEdgeStyle;elbow=vertical;exitX=1.011;exitY=0.451;exitDx=0;exitDy=0;exitPerimeter=0;entryX=0;entryY=0.348;entryDx=0;entryDy=0;entryPerimeter=0;" parent="7Op2JaMXb7pChXdJnSNb-6" edge="1">
          <mxGeometry x="-0.0308" y="-1" relative="1" as="geometry">
            <mxPoint x="-124.00000000000011" y="196.22000000000003" as="sourcePoint" />
            <mxPoint x="45" y="195.12" as="targetPoint" />
            <Array as="points" />
            <mxPoint as="offset" />
          </mxGeometry>
        </mxCell>
        <mxCell id="okRCfM9HJUnAa3HQ13vf-1" value="&lt;font face=&quot;Verdana&quot; style=&quot;font-size: 11px;&quot;&gt;&amp;nbsp;19. Validation&amp;nbsp;&lt;/font&gt;" style="html=1;align=left;spacingLeft=2;endArrow=block;rounded=0;edgeStyle=orthogonalEdgeStyle;curved=0;rounded=0;verticalAlign=middle;" parent="7Op2JaMXb7pChXdJnSNb-6" edge="1">
          <mxGeometry x="-1" y="-17" relative="1" as="geometry">
            <mxPoint x="55" y="325" as="sourcePoint" />
            <Array as="points">
              <mxPoint x="85" y="325" />
              <mxPoint x="85" y="362" />
            </Array>
            <mxPoint x="63" y="362" as="targetPoint" />
            <mxPoint as="offset" />
          </mxGeometry>
        </mxCell>
        <mxCell id="7Op2JaMXb7pChXdJnSNb-8" value="Passenger" style="shape=umlLifeline;perimeter=lifelinePerimeter;whiteSpace=wrap;html=1;container=1;collapsible=0;recursiveResize=0;outlineConnect=0;rounded=1;shadow=0;comic=0;labelBackgroundColor=none;strokeWidth=1;fontFamily=Verdana;fontSize=12;align=center;fillColor=#dae8fc;strokeColor=#6c8ebf;" parent="1" vertex="1">
          <mxGeometry x="209" y="26" width="100" height="534" as="geometry" />
        </mxCell>
        <mxCell id="7Op2JaMXb7pChXdJnSNb-9" value="" style="html=1;points=[];perimeter=orthogonalPerimeter;rounded=0;shadow=0;comic=0;labelBackgroundColor=none;strokeWidth=1;fontFamily=Verdana;fontSize=12;align=center;fillColor=#dae8fc;strokeColor=#6c8ebf;" parent="7Op2JaMXb7pChXdJnSNb-8" vertex="1">
          <mxGeometry x="45" y="60" width="10" height="390" as="geometry" />
        </mxCell>
        <mxCell id="7Op2JaMXb7pChXdJnSNb-41" value="&amp;nbsp;16. Check-in&amp;nbsp;&amp;nbsp;" style="html=1;verticalAlign=middle;endArrow=block;entryX=0;entryY=0.452;labelBackgroundColor=default;fontFamily=Verdana;fontSize=11;edgeStyle=elbowEdgeStyle;elbow=vertical;entryDx=0;entryDy=0;entryPerimeter=0;exitX=0.944;exitY=0.453;exitDx=0;exitDy=0;exitPerimeter=0;" parent="7Op2JaMXb7pChXdJnSNb-8" edge="1">
          <mxGeometry x="-0.0027" relative="1" as="geometry">
            <mxPoint x="55.00000000000006" y="333.21999999999997" as="sourcePoint" />
            <mxPoint x="224.56" y="333.00000000000006" as="targetPoint" />
            <Array as="points" />
            <mxPoint as="offset" />
          </mxGeometry>
        </mxCell>
        <mxCell id="7Op2JaMXb7pChXdJnSNb-37" value="&amp;nbsp;8. Select seat(s)&amp;nbsp;" style="html=1;verticalAlign=middle;endArrow=block;entryX=0;entryY=0.452;labelBackgroundColor=default;fontFamily=Verdana;fontSize=11;edgeStyle=elbowEdgeStyle;elbow=vertical;entryDx=0;entryDy=0;entryPerimeter=0;exitX=0.944;exitY=0.453;exitDx=0;exitDy=0;exitPerimeter=0;" parent="7Op2JaMXb7pChXdJnSNb-8" edge="1">
          <mxGeometry x="-0.0027" relative="1" as="geometry">
            <mxPoint x="55.00000000000006" y="196.21999999999997" as="sourcePoint" />
            <mxPoint x="224.56" y="196.00000000000006" as="targetPoint" />
            <Array as="points" />
            <mxPoint as="offset" />
          </mxGeometry>
        </mxCell>
        <mxCell id="7Op2JaMXb7pChXdJnSNb-29" value="6. Select passengers&lt;br&gt;(booking)" style="html=1;verticalAlign=middle;endArrow=block;entryX=0;entryY=0.452;labelBackgroundColor=default;fontFamily=Verdana;fontSize=11;edgeStyle=elbowEdgeStyle;elbow=vertical;entryDx=0;entryDy=0;entryPerimeter=0;exitX=0.944;exitY=0.453;exitDx=0;exitDy=0;exitPerimeter=0;" parent="7Op2JaMXb7pChXdJnSNb-8" edge="1">
          <mxGeometry x="-0.0027" relative="1" as="geometry">
            <mxPoint x="55.00000000000006" y="142.21999999999997" as="sourcePoint" />
            <mxPoint x="224.56" y="142.00000000000006" as="targetPoint" />
            <Array as="points" />
            <mxPoint as="offset" />
          </mxGeometry>
        </mxCell>
        <mxCell id="7Op2JaMXb7pChXdJnSNb-10" value="&amp;nbsp;3. Select List of booking&amp;nbsp;" style="html=1;verticalAlign=middle;endArrow=block;labelBackgroundColor=default;fontFamily=Verdana;fontSize=11;edgeStyle=elbowEdgeStyle;elbow=vertical;entryX=0.067;entryY=0.039;entryDx=0;entryDy=0;entryPerimeter=0;" parent="1" edge="1">
          <mxGeometry x="-0.0699" relative="1" as="geometry">
            <mxPoint x="627" y="101" as="sourcePoint" />
            <Array as="points">
              <mxPoint x="696" y="101" />
              <mxPoint x="616" y="41" />
            </Array>
            <mxPoint x="794.6700000000003" y="101.15999999999997" as="targetPoint" />
            <mxPoint as="offset" />
          </mxGeometry>
        </mxCell>
        <mxCell id="7Op2JaMXb7pChXdJnSNb-12" value="&amp;nbsp;2. getBookingByPnr()&amp;nbsp;" style="verticalAlign=middle;endArrow=block;labelBackgroundColor=default;fontFamily=Verdana;fontSize=11;edgeStyle=elbowEdgeStyle;elbow=vertical;entryX=0.03;entryY=0.451;entryDx=0;entryDy=0;entryPerimeter=0;exitX=1.011;exitY=0.451;exitDx=0;exitDy=0;exitPerimeter=0;labelBorderColor=none;fontColor=default;html=1;spacingTop=0;spacingLeft=0;horizontal=1;" parent="1" edge="1">
          <mxGeometry x="0.021" relative="1" as="geometry">
            <mxPoint x="443.1099999999999" y="101.22000000000003" as="sourcePoint" />
            <mxPoint x="613.3" y="101.22000000000003" as="targetPoint" />
            <Array as="points" />
            <mxPoint as="offset" />
          </mxGeometry>
        </mxCell>
        <mxCell id="7Op2JaMXb7pChXdJnSNb-35" value="&amp;nbsp;15. Confirm regulations&amp;nbsp;" style="html=1;verticalAlign=middle;endArrow=block;entryX=0;entryY=0.452;labelBackgroundColor=default;fontFamily=Verdana;fontSize=11;edgeStyle=elbowEdgeStyle;elbow=vertical;entryDx=0;entryDy=0;entryPerimeter=0;exitX=0.944;exitY=0.453;exitDx=0;exitDy=0;exitPerimeter=0;" parent="1" edge="1">
          <mxGeometry x="-0.0027" relative="1" as="geometry">
            <mxPoint x="263.44000000000005" y="318.65999999999997" as="sourcePoint" />
            <mxPoint x="433" y="318.44000000000005" as="targetPoint" />
            <Array as="points" />
            <mxPoint as="offset" />
          </mxGeometry>
        </mxCell>
        <mxCell id="vvcB78ZaGYWaYG9tcJMQ-3" value="&lt;font face=&quot;Verdana&quot; style=&quot;font-size: 11px;&quot;&gt;&amp;nbsp;11. Validation&amp;nbsp;&lt;/font&gt;" style="html=1;align=left;spacingLeft=2;endArrow=block;rounded=0;edgeStyle=orthogonalEdgeStyle;curved=0;rounded=0;verticalAlign=middle;" parent="1" edge="1">
          <mxGeometry x="-1" y="-17" relative="1" as="geometry">
            <mxPoint x="805" y="222" as="sourcePoint" />
            <Array as="points">
              <mxPoint x="835" y="222" />
              <mxPoint x="835" y="259" />
            </Array>
            <mxPoint x="813" y="259" as="targetPoint" />
            <mxPoint as="offset" />
          </mxGeometry>
        </mxCell>
      </root>
    </mxGraphModel>
  </diagram>
</mxfile>
